<svg class="css-ze2te4 css-qd6ojx" viewBox="0 0 83.33333333333333 78.7731777862208"><g transform="translate(-37.66863809161965, -24.081691516284202) scale(0.18740615965979923)" class="css-1lmlii8" fill="#f8b500"><g xmlns="http://www.w3.org/2000/svg"><g><path d="M423.667,548.833c-7.5-0.5-9.833-9.667-9.833-9.667C410,526.166,398.667,517,398.667,517    C378.333,498.167,296,447.5,296,447.5C270.5,436,216,419,216,419c-12-6-15-20-15-20c5,0.5,26.5-8.5,26.5-8.5l-26.5-31l26-9.5    l-26-23.5l29-17.5c-19-145.5,109-180.5,109-180.5s-9.5,138,8,153.5c0,0,35.834-27.5,76.667-29"></path><path d="M423,548.834c7.5-0.5,9.834-9.668,9.834-9.668C436.666,526.166,448,517,448,517c20.334-18.832,102.667-69.5,102.667-69.5    c25.5-11.5,80-28.5,80-28.5c12-6,15-20,15-20c-5,0.5-26.5-8.5-26.5-8.5l26.5-31l-26-9.5l26-23.5l-29-17.5    c19-145.5-109-180.5-109-180.5s9.5,138-8,153.5c0,0-35.834-27.5-76.667-29"></path></g><path fill="{{COLOR}}" d="M526.875,349c-0.504-0.579-1.638-0.396-2.262-0.281c-3.223,0.598-6.087,3.236-8.14,5.617   c-3.188,3.697-5.497,8.293-8.43,12.216c-2.324,3.109-5.007,5.961-7.836,8.615c-6.988,6.558-16.157,10.835-25.915,10.476   c-6.823-0.251-13.843-3.613-19.418-7.393c0,0,14.125-32.125,61-32C515.875,346.25,523.5,345.125,526.875,349z"></path><path fill="{{COLOR}}" d="M331.347,349.455c0.504-0.579,1.638-0.396,2.262-0.281c3.223,0.598,6.087,3.236,8.14,5.617   c3.188,3.697,5.497,8.293,8.43,12.216c2.324,3.109,5.007,5.961,7.836,8.615c6.988,6.558,16.157,10.835,25.915,10.476   c6.823-0.251,13.843-3.613,19.418-7.393c0,0-14.125-32.125-61-32C342.347,346.705,334.722,345.58,331.347,349.455z"></path></g></g></svg>